REM DIRINDEX 1\2,1\3,1\4,1\5
REM DIRNAME cjc005,folder01,folder02,folder03,folder04
TITLE ""
FILE "P1Q_t_0692-0701.mp3" MP3
  TRACK 01 AUDIO
    TITLE "3:cjc005_2980"
    INDEX 01 00:00:00
  TRACK 02 AUDIO
    TITLE "0:"
    INDEX 01 00:01:05
  TRACK 03 AUDIO
    TITLE "4:cjc005_2981"
    INDEX 01 00:01:36
  TRACK 04 AUDIO
    TITLE "0:"
    INDEX 01 00:02:42
  TRACK 05 AUDIO
    TITLE "5:cjc005_2982"
    INDEX 01 00:02:69
  TRACK 06 AUDIO
    TITLE "0:"
    INDEX 01 00:06:30
  TRACK 07 AUDIO
    TITLE "3:cjc005_2983"
    INDEX 01 00:07:09
  TRACK 08 AUDIO
    TITLE "0:"
    INDEX 01 00:08:17
  TRACK 09 AUDIO
    TITLE "4:cjc005_2984"
    INDEX 01 00:08:46
  TRACK 10 AUDIO
    TITLE "0:"
    INDEX 01 00:09:51
  TRACK 11 AUDIO
    TITLE "5:cjc005_2985"
    INDEX 01 00:10:06
  TRACK 12 AUDIO
    TITLE "0:"
    INDEX 01 00:14:47
  TRACK 13 AUDIO
    TITLE "3:cjc005_2986"
    INDEX 01 00:15:25
  TRACK 14 AUDIO
    TITLE "0:"
    INDEX 01 00:16:36
  TRACK 15 AUDIO
    TITLE "4:cjc005_2987"
    INDEX 01 00:16:59
  TRACK 16 AUDIO
    TITLE "0:"
    INDEX 01 00:17:59
  TRACK 17 AUDIO
    TITLE "5:cjc005_2988"
    INDEX 01 00:18:09
  TRACK 18 AUDIO
    TITLE "0:"
    INDEX 01 00:21:53
  TRACK 19 AUDIO
    TITLE "3:cjc005_2989"
    INDEX 01 00:22:27
  TRACK 20 AUDIO
    TITLE "0:"
    INDEX 01 00:23:42
  TRACK 21 AUDIO
    TITLE "4:cjc005_2990"
    INDEX 01 00:23:61
  TRACK 22 AUDIO
    TITLE "0:"
    INDEX 01 00:24:65
  TRACK 23 AUDIO
    TITLE "5:cjc005_2991"
    INDEX 01 00:25:09
  TRACK 24 AUDIO
    TITLE "0:"
    INDEX 01 00:27:57
  TRACK 25 AUDIO
    TITLE "3:cjc005_2992"
    INDEX 01 00:28:31
  TRACK 26 AUDIO
    TITLE "0:"
    INDEX 01 00:29:54
  TRACK 27 AUDIO
    TITLE "4:cjc005_2993"
    INDEX 01 00:29:74
  TRACK 28 AUDIO
    TITLE "0:"
    INDEX 01 00:31:08
  TRACK 29 AUDIO
    TITLE "5:cjc005_2994"
    INDEX 01 00:31:29
  TRACK 30 AUDIO
    TITLE "0:"
    INDEX 01 00:34:51
  TRACK 31 AUDIO
    TITLE "3:cjc005_2995"
    INDEX 01 00:35:29
  TRACK 32 AUDIO
    TITLE "0:"
    INDEX 01 00:36:44
  TRACK 33 AUDIO
    TITLE "4:cjc005_2996"
    INDEX 01 00:36:70
  TRACK 34 AUDIO
    TITLE "0:"
    INDEX 01 00:38:08
  TRACK 35 AUDIO
    TITLE "5:cjc005_2997"
    INDEX 01 00:38:35
  TRACK 36 AUDIO
    TITLE "0:"
    INDEX 01 00:42:63
  TRACK 37 AUDIO
    TITLE "3:cjc005_2998"
    INDEX 01 00:43:40
  TRACK 38 AUDIO
    TITLE "0:"
    INDEX 01 00:44:54
  TRACK 39 AUDIO
    TITLE "4:cjc005_2999"
    INDEX 01 00:45:02
  TRACK 40 AUDIO
    TITLE "0:"
    INDEX 01 00:46:17
  TRACK 41 AUDIO
    TITLE "5:cjc005_3000"
    INDEX 01 00:46:41
  TRACK 42 AUDIO
    TITLE "0:"
    INDEX 01 00:51:62
  TRACK 43 AUDIO
    TITLE "3:cjc005_3001"
    INDEX 01 00:52:43
  TRACK 44 AUDIO
    TITLE "0:"
    INDEX 01 00:53:60
  TRACK 45 AUDIO
    TITLE "4:cjc005_3002"
    INDEX 01 00:54:05
  TRACK 46 AUDIO
    TITLE "0:"
    INDEX 01 00:55:06
  TRACK 47 AUDIO
    TITLE "5:cjc005_3003"
    INDEX 01 00:55:26
  TRACK 48 AUDIO
    TITLE "0:"
    INDEX 01 00:59:02
  TRACK 49 AUDIO
    TITLE "3:cjc005_3004"
    INDEX 01 00:59:53
  TRACK 50 AUDIO
    TITLE "0:"
    INDEX 01 01:01:05
  TRACK 51 AUDIO
    TITLE "4:cjc005_3005"
    INDEX 01 01:01:31
  TRACK 52 AUDIO
    TITLE "0:"
    INDEX 01 01:02:32
  TRACK 53 AUDIO
    TITLE "5:cjc005_3006"
    INDEX 01 01:02:55
  TRACK 54 AUDIO
    TITLE "0:"
    INDEX 01 01:07:68
  TRACK 55 AUDIO
    TITLE "3:cjc005_3007"
    INDEX 01 01:08:52
  TRACK 56 AUDIO
    TITLE "0:"
    INDEX 01 01:10:20
  TRACK 57 AUDIO
    TITLE "4:cjc005_3008"
    INDEX 01 01:10:43
  TRACK 58 AUDIO
    TITLE "0:"
    INDEX 01 01:11:60
  TRACK 59 AUDIO
    TITLE "5:cjc005_3009"
    INDEX 01 01:12:07
  TRACK 60 AUDIO
    TITLE "0:"
    INDEX 01 01:15:62
